<svg width="98" height="116" viewBox="0 0 98 116" fill="none" xmlns="http://www.w3.org/2000/svg">
<path d="M11.4167 43.75C11.4167 24.0978 27.3478 8.16667 47 8.16667C66.6522 8.16667 82.5833 24.0978 82.5833 43.75V74.25C82.5833 93.9022 66.6522 109.833 47 109.833C27.3478 109.833 11.4167 93.9022 11.4167 74.25V43.75Z" stroke="#333333" stroke-width="3" stroke-linecap="round" stroke-linejoin="round"/>
<path d="M11.4167 41.2083H82.5833" stroke="#333333" stroke-width="3" stroke-linecap="round" stroke-linejoin="round"/>
<path d="M41.9167 25.9583H52.0833" stroke="#333333" stroke-width="3" stroke-linecap="round" stroke-linejoin="round"/>
<path d="M11.4167 64.0833C11.4167 64.0833 25.1417 62.5583 29.2083 66.625C33.275 70.6917 31.75 75.1871 31.75 75.1871C39.375 75.1871 47 75.5895 47 84.4167C47 90.7708 36.8333 94.5833 30.4792 90.4371C30.4792 95.8542 29.2083 99.6667 21.5833 99.6667" stroke="#333333" stroke-width="3" stroke-linecap="round" stroke-linejoin="round"/>
<path d="M82.5833 56.4583C82.5833 56.4583 73.6875 51.375 69.875 53.9167C66.0625 56.4583 67.3333 61.5417 67.3333 61.5417C63.5208 59 57.1667 61.5417 57.1667 67.8958C57.1667 74.25 63.5208 76.7917 69.875 74.25C72.4167 81.875 78.7708 81.875 82.5833 79.3333" stroke="#333333" stroke-width="3" stroke-linecap="round" stroke-linejoin="round"/>
<path d="M49.5417 109.833C67.7901 109.833 82.5833 95.0401 82.5833 76.7917V43.75C82.5833 24.0978 66.6522 8.16667 47 8.16667" stroke="#333333" stroke-width="3" stroke-linecap="round" stroke-linejoin="round"/>
<path d="M44.4583 109.833C26.2099 109.833 11.4167 95.0401 11.4167 76.7917V43.75C11.4167 24.0978 27.3478 8.16667 47 8.16667" stroke="#333333" stroke-width="3" stroke-linecap="round" stroke-linejoin="round"/>
</svg>
